<svg width="19" height="20" viewBox="0 0 19 20" fill="none" xmlns="http://www.w3.org/2000/svg">
<path d="M8.24141 0.220703C10.3087 0.220703 12.1153 0.639757 13.6612 1.47787C15.2257 2.31598 16.4269 3.48002 17.2651 4.96999C18.1032 6.45996 18.5222 8.1548 18.5222 10.0545C18.5222 11.9356 18.1032 13.6305 17.2651 15.139C16.4269 16.6476 15.2257 17.8396 13.6612 18.715C12.1153 19.5717 10.3087 20.0001 8.24141 20.0001H0V0.220703H8.24141ZM7.68267 14.4686C9.07952 14.4686 10.1877 14.0868 11.0072 13.3231C11.8267 12.5595 12.2364 11.47 12.2364 10.0545C12.2364 8.63905 11.8267 7.5495 11.0072 6.78589C10.1877 6.02228 9.07952 5.64048 7.68267 5.64048H6.20201V14.4686H7.68267Z" fill="white"/>
</svg>
